<mxfile host="app.diagrams.net" agent="Mozilla/5.0 (Windows NT 10.0; Win64; x64) AppleWebKit/537.36 (KHTML, like Gecko) Chrome/138.0.0.0 Safari/537.36 Edg/138.0.0.0" version="28.0.7">
  <diagram name="Page-1" id="ZyfH3piJxzWGlCz8fKRY">
    <mxGraphModel dx="4160" dy="2540" grid="1" gridSize="10" guides="1" tooltips="1" connect="1" arrows="1" fold="1" page="1" pageScale="1" pageWidth="850" pageHeight="1100" math="0" shadow="0">
      <root>
        <mxCell id="0" />
        <mxCell id="1" parent="0" />
        <mxCell id="CbfVDPXAw3piCmN7xUy_-1" value="" style="rounded=0;whiteSpace=wrap;html=1;imageWidth=1920;imageHeight=1080;strokeColor=none;" vertex="1" parent="1">
          <mxGeometry x="380" y="590" width="1920" height="1080" as="geometry" />
        </mxCell>
      </root>
    </mxGraphModel>
  </diagram>
</mxfile>
